<svg width="340" height="268" viewBox="0 0 340 268" fill="none" xmlns="http://www.w3.org/2000/svg">
<rect x="0.0910645" width="339.595" height="267.597" rx="50" fill="#DCEDB9"/>
<path d="M0.0910645 32.0027C0.0910645 14.3281 14.4192 0 32.0938 0H307.684C325.358 0 339.686 14.3281 339.686 32.0027H0.0910645Z" fill="#566D56"/>
<ellipse cx="27.5118" cy="16.6824" rx="4.92168" ry="4.76637" fill="#D2E7EE"/>
<ellipse cx="27.5118" cy="16.6824" rx="4.92168" ry="4.76637" fill="#D2E7EE"/>
<ellipse cx="44.0347" cy="16.6824" rx="4.92168" ry="4.76637" fill="#D2E7EE"/>
<ellipse cx="44.0347" cy="16.6824" rx="4.92168" ry="4.76637" fill="#D2E7EE"/>
<ellipse cx="60.5572" cy="16.6824" rx="4.92166" ry="4.76637" fill="#D2E7EE"/>
<ellipse cx="60.5572" cy="16.6824" rx="4.92166" ry="4.76637" fill="#D2E7EE"/>
<rect x="150.202" y="46.6423" width="173.313" height="102.136" rx="40" fill="#AAD0A9"/>
<ellipse cx="278.693" cy="96.5189" rx="32.1666" ry="31.1516" fill="#A9EEC5"/>
<ellipse cx="278.693" cy="96.5189" rx="32.1666" ry="31.1516" fill="#AABF7C"/>
<path d="M259.243 121.331C262.871 123.998 267.043 125.889 271.483 126.878C275.922 127.867 280.528 127.931 284.995 127.067C289.462 126.202 293.689 124.429 297.395 121.864C301.101 119.299 304.203 116.001 306.494 112.188C308.785 108.375 310.214 104.134 310.686 99.7465C311.158 95.3586 310.662 90.9237 309.232 86.7353C307.801 82.5469 305.468 78.7006 302.387 75.4509C299.307 72.2012 295.548 69.6223 291.361 67.8849L278.693 96.5189L259.243 121.331Z" fill="#FF546C"/>
<path d="M310.859 96.5189C310.859 91.5217 309.618 86.5977 307.24 82.1628C304.862 77.7278 301.417 73.912 297.196 71.0374C292.975 68.1628 288.102 66.3137 282.989 65.6464C277.875 64.979 272.67 65.5129 267.814 67.2029L278.693 96.5189H310.859Z" fill="#EEF2E2"/>
<rect x="167.076" y="68.4314" width="10.5464" height="10.2136" rx="5.10682" fill="#AABF7C"/>
<rect x="182.713" y="71.088" width="37.0335" height="2.65666" rx="1.32833" fill="#DCEDB9"/>
<rect x="167.076" y="92.6036" width="10.5464" height="10.2136" rx="5.10682" fill="#FF546C"/>
<rect x="187.115" y="96.0083" width="47.459" height="3.40455" rx="1.70227" fill="#DCEDB9"/>
<rect x="167.076" y="116.776" width="10.5464" height="10.2136" rx="5.10682" fill="#EEF2E2"/>
<rect x="187.115" y="120.18" width="47.459" height="3.40455" rx="1.70227" fill="#DCEDB9"/>
<rect x="16.2622" y="46.6423" width="118.823" height="102.136" rx="40" fill="#AAD0A9"/>
<rect x="28.2151" y="57.8772" width="8.43714" height="58.8986" rx="4.21857" fill="#A9EEC5"/>
<rect x="28.2151" y="57.8772" width="8.43714" height="58.8986" rx="4.21857" fill="#DCEDB9"/>
<rect x="28.2151" y="75.5809" width="8.43714" height="41.195" rx="4.21857" fill="#8AA357"/>
<rect x="28.2151" y="75.5809" width="8.43714" height="41.195" rx="4.21857" fill="#8AA357"/>
<rect x="45.4407" y="57.8772" width="8.43714" height="58.8986" rx="4.21857" fill="#A9EEC5"/>
<rect x="45.4407" y="57.8772" width="8.43714" height="58.8986" rx="4.21857" fill="#DCEDB9"/>
<rect x="45.4407" y="92.6036" width="8.43714" height="24.1723" rx="4.21857" fill="#8AA357"/>
<rect x="45.4407" y="92.6036" width="8.43714" height="24.1723" rx="4.21857" fill="#8AA357"/>
<rect x="62.6665" y="57.8772" width="8.43714" height="58.8986" rx="4.21857" fill="#A9EEC5"/>
<rect x="62.6665" y="57.8772" width="8.43714" height="58.8986" rx="4.21857" fill="#DCEDB9"/>
<rect x="62.6665" y="69.1123" width="8.43714" height="47.6637" rx="4.21857" fill="#8AA357"/>
<rect x="62.6665" y="69.1123" width="8.43714" height="47.6637" rx="4.21857" fill="#8AA357"/>
<rect x="79.8923" y="57.8772" width="8.43717" height="58.8986" rx="4.21859" fill="#A9EEC5"/>
<rect x="79.8923" y="57.8772" width="8.43717" height="58.8986" rx="4.21859" fill="#DCEDB9"/>
<rect x="79.8923" y="82.39" width="8.43717" height="34.3859" rx="4.21859" fill="#8AA357"/>
<rect x="79.8923" y="82.39" width="8.43717" height="34.3859" rx="4.21859" fill="#8AA357"/>
<rect x="97.1184" y="57.8772" width="8.43716" height="58.8986" rx="4.21858" fill="#A9EEC5"/>
<rect x="97.1184" y="57.8772" width="8.43716" height="58.8986" rx="4.21858" fill="#DCEDB9"/>
<rect x="97.1184" y="72.1763" width="8.43716" height="44.5995" rx="4.21858" fill="#8AA357"/>
<rect x="97.1184" y="72.1763" width="8.43716" height="44.5995" rx="4.21858" fill="#8AA357"/>
<rect x="114.344" y="57.8772" width="8.43717" height="58.8986" rx="4.21859" fill="#A9EEC5"/>
<rect x="114.344" y="57.8772" width="8.43717" height="58.8986" rx="4.21859" fill="#DCEDB9"/>
<rect x="114.344" y="99.7532" width="8.43717" height="17.0227" rx="4.21859" fill="#8AA357"/>
<rect x="114.344" y="99.7532" width="8.43717" height="17.0227" rx="4.21859" fill="#8AA357"/>
<rect x="28.2151" y="124.266" width="47.459" height="3.40455" rx="1.70227" fill="#DCEDB9"/>
<rect x="28.2151" y="131.756" width="73.122" height="3.40455" rx="1.70227" fill="#DCEDB9"/>
<rect x="16.2622" y="166.482" width="138.158" height="83.4114" rx="40" fill="#AAD0A9"/>
<path d="M79.8329 185.213L61.1471 195.769C57.5666 197.792 59.0022 203.252 63.1145 203.252H129.554C132.709 203.252 134.187 199.349 131.824 197.259L129.048 194.805C124.961 191.19 119.224 190.07 114.072 191.866C108.474 193.818 102.234 192.303 98.1667 187.989C93.4218 182.957 85.8552 181.811 79.8329 185.213Z" fill="#577883"/>
<ellipse cx="111.005" cy="179.93" rx="4.74591" ry="4.59614" fill="#577883"/>
<rect x="34.5427" y="212.103" width="47.459" height="3.40455" rx="1.70227" fill="#DCEDB9"/>
<rect x="34.5427" y="219.593" width="73.122" height="3.40455" rx="1.70227" fill="#DCEDB9"/>
<rect x="34.5427" y="227.083" width="67.1457" height="3.40455" rx="1.70227" fill="#DCEDB9"/>
<rect x="34.5427" y="234.573" width="90.6994" height="3.40455" rx="1.70227" fill="#DCEDB9"/>
<rect x="169.537" y="166.482" width="67.4972" height="31.3218" rx="15.6609" fill="#AAD0A9"/>
<ellipse cx="183.775" cy="181.292" rx="6.15207" ry="5.95795" fill="#EEF2E2"/>
<rect x="195.903" y="176.696" width="20.3898" height="3.40455" rx="1.70227" fill="#DCEDB9"/>
<rect x="195.903" y="184.186" width="31.2878" height="3.40455" rx="1.70227" fill="#DCEDB9"/>
<rect x="246.526" y="193.038" width="76.989" height="56.8559" rx="28.428" fill="#AAD0A9"/>
<path fill-rule="evenodd" clip-rule="evenodd" d="M278.043 224.121C274.938 223.798 271.421 225.528 269.274 231.008C268.109 233.98 266.691 235.89 265.05 236.886C263.359 237.914 261.597 237.873 260.02 237.296C258.48 236.733 257.087 235.655 255.965 234.53C254.835 233.397 253.914 232.153 253.328 231.167C253.022 230.652 253.191 229.986 253.706 229.68C254.221 229.374 254.887 229.543 255.193 230.058C255.692 230.897 256.504 231.997 257.501 232.997C258.507 234.004 259.637 234.846 260.765 235.258C261.857 235.657 262.908 235.648 263.924 235.031C264.99 234.384 266.173 232.973 267.253 230.217C269.665 224.062 273.963 221.515 278.267 221.962C282.456 222.397 286.271 225.648 287.852 230.261C288.583 232.397 289.445 233.57 290.271 234.161C291.053 234.72 291.919 234.84 292.92 234.596C293.959 234.343 295.116 233.699 296.329 232.753C297.532 231.814 298.73 230.628 299.851 229.37C303.314 225.483 309.763 224.94 313.168 229.233L316.983 234.045C317.356 234.514 317.277 235.197 316.807 235.569C316.338 235.941 315.655 235.863 315.283 235.393L311.467 230.582C309.063 227.55 304.222 227.726 301.471 230.813C300.298 232.13 299.004 233.418 297.664 234.464C296.333 235.501 294.894 236.349 293.433 236.705C291.932 237.07 290.392 236.916 289.008 235.926C287.668 234.968 286.605 233.318 285.798 230.964C284.448 227.022 281.262 224.455 278.043 224.121Z" fill="#DCEDB9"/>
<path fill-rule="evenodd" clip-rule="evenodd" d="M278.088 224.121C274.997 223.796 271.482 225.538 269.334 231.084C269.118 231.643 268.489 231.921 267.93 231.704C267.371 231.488 267.094 230.859 267.31 230.3C269.716 224.09 274.006 221.51 278.315 221.963C282.505 222.403 286.313 225.691 287.889 230.344C288.621 232.506 289.483 233.694 290.308 234.291C291.088 234.855 291.949 234.975 292.945 234.73C293.981 234.474 295.136 233.824 296.348 232.868C297.549 231.92 298.746 230.72 299.866 229.449C303.325 225.521 309.774 224.971 313.176 229.31L316.987 234.172C317.356 234.644 317.274 235.326 316.802 235.696C316.33 236.065 315.648 235.983 315.279 235.511L311.468 230.649C309.068 227.588 304.241 227.764 301.495 230.883C300.323 232.213 299.031 233.515 297.692 234.571C296.363 235.619 294.926 236.477 293.464 236.837C291.961 237.207 290.419 237.05 289.036 236.049C287.698 235.081 286.638 233.416 285.833 231.04C284.482 227.048 281.297 224.458 278.088 224.121Z" fill="#8AA357"/>
<rect x="257.424" y="201.209" width="31.2878" height="3.40455" rx="1.70227" fill="#DCEDB9"/>
<rect x="257.424" y="208.699" width="18.2805" height="3.40455" rx="1.70227" fill="#DCEDB9"/>
</svg>
