<svg width="83" height="81" viewBox="0 0 83 81" fill="none" xmlns="http://www.w3.org/2000/svg">
<rect x="0.476807" y="0.862793" width="82.2622" height="79.6664" rx="30" fill="#577883"/>
<path fill-rule="evenodd" clip-rule="evenodd" d="M34.577 51.0589C44.7218 51.0589 52.7661 43.1207 52.7661 33.5464C52.7661 23.9722 44.7218 16.034 34.577 16.034C24.4322 16.034 16.3879 23.9722 16.3879 33.5464C16.3879 43.1207 24.4322 51.0589 34.577 51.0589ZM34.577 54.3142C46.4204 54.3142 56.0214 45.0161 56.0214 33.5464C56.0214 22.0767 46.4204 12.7787 34.577 12.7787C22.7336 12.7787 13.1326 22.0767 13.1326 33.5464C13.1326 45.0161 22.7336 54.3142 34.577 54.3142Z" fill="white"/>
<path fill-rule="evenodd" clip-rule="evenodd" d="M47.3162 47.3629C47.9448 46.7203 48.9913 46.692 49.6537 47.2997L67.2932 63.4835C67.9556 64.0912 67.983 65.1048 67.3544 65.7474C66.7258 66.39 65.6792 66.4183 65.0168 65.8105L47.3773 49.6267C46.7149 49.019 46.6876 48.0054 47.3162 47.3629Z" fill="white"/>
</svg>
