<svg width="1194" height="68" viewBox="0 0 1194 68" fill="none" xmlns="http://www.w3.org/2000/svg">
<path d="M1194 18.3524C1184.12 18.3524 1148.93 2 1134.73 2C1120.53 2 1095.22 29.348 1072.99 29.348C1050.77 29.348 972.363 58.1057 955.076 58.1057C937.79 58.1057 887.165 42.0352 863.088 42.0352C839.01 42.0352 801.968 51.6212 776.038 51.6212C750.109 51.6212 733.439 58.1057 716.77 58.1057C700.101 58.1057 639.599 66 621.078 66C602.556 66 551.314 45.9824 537.732 45.9824C524.15 45.9824 492.047 39.7797 479.082 39.7797C466.117 39.7797 432.779 29.348 418.579 29.348C404.38 29.348 375.363 36.3965 358.077 36.3965C340.79 36.3965 311.156 29.348 298.809 29.348C286.461 29.348 246.949 51.6212 240.158 51.6212C233.367 51.6212 190.768 42.0352 179.656 42.0352C168.543 42.0352 135.205 45.9824 119.77 45.9824C107.423 45.9824 74.2906 39.5918 59.2678 36.3965H0" stroke="#5D5D5D" stroke-width="3"/>
</svg>
