<svg width="966" height="68" viewBox="0 0 966 68" fill="none" xmlns="http://www.w3.org/2000/svg">
<path d="M966 18.3524C958.008 18.3524 929.538 2 918.05 2C906.562 2 886.083 29.348 868.101 29.348C850.12 29.348 786.686 58.1057 772.7 58.1057C758.715 58.1057 717.757 42.0352 698.277 42.0352C678.797 42.0352 648.828 51.6211 627.85 51.6211C606.872 51.6211 593.386 58.1057 579.9 58.1057C566.414 58.1057 517.464 66 502.48 66C487.495 66 446.038 45.9824 435.05 45.9824C424.061 45.9824 398.088 39.7797 387.599 39.7797C377.11 39.7797 350.138 29.348 338.649 29.348C327.161 29.348 303.686 36.3965 289.7 36.3965C275.715 36.3965 251.739 29.348 241.75 29.348C231.76 29.348 199.793 51.6211 194.299 51.6211C188.805 51.6211 154.34 42.0352 145.35 42.0352C136.359 42.0352 109.387 45.9824 96.8997 45.9824C86.91 45.9824 60.1044 39.5918 47.9504 36.3965H0" stroke="#5D5D5D" stroke-width="3"/>
</svg>
