<svg width="657" height="421" viewBox="0 0 657 421" fill="none" xmlns="http://www.w3.org/2000/svg">
<path d="M0 49.6894C0 22.2467 22.2467 1.52588e-05 49.6893 1.52588e-05H556.737C584.18 1.52588e-05 606.426 22.2467 606.426 49.6894H0Z" fill="white"/>
<ellipse cx="48.9662" cy="25.902" rx="8.7888" ry="7.40055" fill="#FAFAFA"/>
<ellipse cx="48.9662" cy="25.902" rx="8.7888" ry="7.40055" fill="#FAFAFA"/>
<ellipse cx="78.4715" cy="25.9019" rx="8.7888" ry="7.40055" fill="#FAFAFA"/>
<ellipse cx="78.4715" cy="25.9019" rx="8.7888" ry="7.40055" fill="#FAFAFA"/>
<ellipse cx="107.977" cy="25.9019" rx="8.78877" ry="7.40055" fill="#FAFAFA"/>
<ellipse cx="107.977" cy="25.9019" rx="8.78877" ry="7.40055" fill="#FAFAFA"/>
<rect x="268.058" y="72.4197" width="309.491" height="158.583" rx="40" fill="#371D88"/>
<ellipse cx="497.508" cy="149.861" rx="57.441" ry="48.3679" fill="#A9EEC5"/>
<ellipse cx="497.508" cy="149.861" rx="57.441" ry="48.3679" fill="#AABF7C"/>
<path d="M462.776 188.386C469.255 192.527 476.705 195.463 484.633 196.998C492.561 198.534 500.785 198.633 508.762 197.291C516.739 195.949 524.287 193.196 530.905 189.213C537.523 185.231 543.062 180.11 547.153 174.19C551.245 168.27 553.797 161.685 554.64 154.872C555.483 148.059 554.597 141.174 552.042 134.67C549.488 128.167 545.322 122.195 539.82 117.15C534.319 112.104 527.607 108.1 520.13 105.402L497.508 149.861L462.776 188.386Z" fill="#FF546C"/>
<path d="M554.949 149.861C554.949 142.102 552.732 134.457 548.486 127.571C544.239 120.685 538.088 114.76 530.55 110.297C523.013 105.834 514.311 102.963 505.179 101.926C496.047 100.89 486.753 101.719 478.081 104.343L497.508 149.861H554.949Z" fill="#EEF2E2"/>
<rect x="298.191" y="106.251" width="18.8331" height="15.8583" rx="7" fill="#AABF7C"/>
<rect x="326.113" y="110.376" width="66.132" height="4.12489" rx="2.06244" fill="white"/>
<rect x="298.191" y="143.782" width="18.8331" height="15.8583" rx="7" fill="#FF546C"/>
<rect x="333.974" y="149.068" width="84.749" height="5.2861" rx="2.64305" fill="white"/>
<rect x="298.191" y="181.313" width="18.8331" height="15.8583" rx="7" fill="#EEF2E2"/>
<rect x="333.974" y="186.599" width="84.749" height="5.2861" rx="2.64305" fill="white"/>
<rect x="28.8773" y="72.4197" width="212.186" height="158.583" rx="40" fill="#371D88"/>
<rect x="50.222" y="89.8638" width="15.0665" height="91.4495" rx="7.53324" fill="#A9EEC5"/>
<rect x="50.222" y="89.8638" width="15.0665" height="91.4495" rx="7.53324" fill="white"/>
<rect x="50.2216" y="117.352" width="15.0665" height="63.9618" rx="7.53324" fill="white"/>
<rect x="50.2216" y="117.352" width="15.0665" height="63.9618" rx="7.53324" fill="white"/>
<rect x="80.9824" y="89.8639" width="15.0665" height="91.4495" rx="7.53324" fill="#A9EEC5"/>
<rect x="80.9824" y="89.8639" width="15.0665" height="91.4495" rx="7.53324" fill="white"/>
<rect x="80.9824" y="143.782" width="15.0665" height="37.5313" rx="7.53324" fill="white"/>
<rect x="80.9824" y="143.782" width="15.0665" height="37.5313" rx="7.53324" fill="white"/>
<rect x="111.743" y="89.8639" width="15.0665" height="91.4495" rx="7.53324" fill="#A9EEC5"/>
<rect x="111.743" y="89.8639" width="15.0665" height="91.4495" rx="7.53324" fill="white"/>
<rect x="111.743" y="107.308" width="15.0665" height="74.0054" rx="7.53324" fill="white"/>
<rect x="111.743" y="107.308" width="15.0665" height="74.0054" rx="7.53324" fill="white"/>
<rect x="142.504" y="89.8639" width="15.0665" height="91.4495" rx="7.53327" fill="#A9EEC5"/>
<rect x="142.504" y="89.8639" width="15.0665" height="91.4495" rx="7.53327" fill="white"/>
<rect x="142.504" y="127.924" width="15.0665" height="53.3896" rx="7.53327" fill="white"/>
<rect x="142.504" y="127.924" width="15.0665" height="53.3896" rx="7.53327" fill="white"/>
<rect x="173.265" y="89.8639" width="15.0665" height="91.4495" rx="7.53325" fill="#A9EEC5"/>
<rect x="173.265" y="89.8639" width="15.0665" height="91.4495" rx="7.53325" fill="white"/>
<rect x="173.265" y="112.065" width="15.0665" height="69.2479" rx="7.53325" fill="white"/>
<rect x="173.265" y="112.065" width="15.0665" height="69.2479" rx="7.53325" fill="white"/>
<rect x="204.025" y="89.8639" width="15.0665" height="91.4495" rx="7.53327" fill="#A9EEC5"/>
<rect x="204.025" y="89.8639" width="15.0665" height="91.4495" rx="7.53327" fill="white"/>
<rect x="204.025" y="154.883" width="15.0665" height="26.4305" rx="7.53327" fill="white"/>
<rect x="204.025" y="154.883" width="15.0665" height="26.4305" rx="7.53327" fill="white"/>
<rect x="50.2216" y="192.943" width="84.749" height="5.2861" rx="2.64305" fill="white"/>
<rect x="50.2216" y="204.572" width="130.576" height="5.2861" rx="2.64305" fill="white"/>
<rect x="28.8773" y="258.49" width="246.714" height="162.51" rx="40" fill="#371D88"/>
<path d="M142.591 294.863L97.3914 322.722C93.9591 324.838 95.4583 330.127 99.4901 330.127H237.434C241.033 330.127 242.801 325.747 240.211 323.249L229.882 313.283C222.912 306.56 212.592 304.502 203.541 307.945C193.718 311.682 182.503 308.916 175.631 300.965L174.625 299.8C166.604 290.518 153.034 288.427 142.591 294.863Z" fill="white"/>
<ellipse cx="198.062" cy="284.691" rx="8.47492" ry="8.95461" fill="white"/>
<rect x="61.522" y="347.373" width="84.749" height="6.63304" rx="3.31652" fill="white"/>
<rect x="61.5212" y="361.966" width="130.576" height="6.63304" rx="3.31652" fill="white"/>
<rect x="61.5212" y="376.559" width="119.904" height="6.63304" rx="3.31652" fill="white"/>
<rect x="61.5212" y="391.151" width="161.965" height="6.63304" rx="3.31652" fill="white"/>
<rect x="302.585" y="258.49" width="120.532" height="48.6322" rx="24.3161" fill="#371D88"/>
<ellipse cx="328.01" cy="281.485" rx="10.986" ry="9.25067" fill="#EEF2E2"/>
<rect x="349.668" y="274.349" width="36.4107" height="5.2861" rx="2.64305" fill="white"/>
<rect x="349.668" y="285.978" width="55.8716" height="5.2861" rx="2.64305" fill="white"/>
<rect x="440" y="253" width="137.482" height="88.2779" rx="40" fill="#371D88"/>
<path fill-rule="evenodd" clip-rule="evenodd" d="M496.347 347.983C490.803 347.482 484.522 350.169 480.688 358.678C478.608 363.292 476.076 366.256 473.146 367.804C470.126 369.399 466.979 369.336 464.163 368.441C461.413 367.566 458.926 365.892 456.922 364.145C454.904 362.387 453.26 360.455 452.213 358.924C451.666 358.124 451.968 357.091 452.888 356.615C453.808 356.139 454.997 356.402 455.544 357.202C456.435 358.504 457.884 360.213 459.665 361.765C461.461 363.329 463.48 364.636 465.494 365.276C467.443 365.896 469.32 365.882 471.134 364.924C473.038 363.918 475.151 361.727 477.079 357.448C481.386 347.892 489.061 343.937 496.747 344.632C504.227 345.308 511.041 350.355 513.863 357.517C515.17 360.833 516.708 362.656 518.183 363.572C519.58 364.441 521.127 364.627 522.913 364.248C524.769 363.855 526.835 362.855 529.002 361.386C531.15 359.929 533.289 358.087 535.291 356.133C541.474 350.099 552.991 349.255 559.071 355.921L565.884 363.392C566.549 364.121 566.409 365.181 565.57 365.759C564.731 366.337 563.513 366.215 562.848 365.486L556.034 358.015C551.742 353.308 543.096 353.581 538.185 358.375C536.09 360.419 533.779 362.42 531.385 364.043C529.009 365.654 526.44 366.97 523.83 367.522C521.15 368.09 518.4 367.85 515.929 366.313C513.536 364.825 511.637 362.264 510.197 358.609C507.785 352.488 502.096 348.503 496.347 347.983Z" fill="white"/>
<path fill-rule="evenodd" clip-rule="evenodd" d="M496.428 347.984C490.909 347.479 484.632 350.183 480.796 358.795C480.409 359.663 479.287 360.094 478.289 359.758C477.291 359.422 476.796 358.446 477.182 357.578C481.477 347.936 489.139 343.929 496.833 344.632C504.317 345.317 511.116 350.422 513.93 357.646C515.236 361.002 516.776 362.847 518.25 363.774C519.642 364.65 521.181 364.836 522.958 364.455C524.809 364.059 526.87 363.049 529.035 361.564C531.181 360.092 533.318 358.23 535.317 356.256C541.494 350.157 553.011 349.303 559.086 356.041L565.891 363.59C566.551 364.322 566.403 365.381 565.561 365.955C564.719 366.529 563.501 366.401 562.841 365.669L556.036 358.12C551.75 353.366 543.131 353.64 538.226 358.483C536.134 360.548 533.826 362.57 531.435 364.21C529.063 365.837 526.496 367.168 523.885 367.727C521.202 368.302 518.449 368.058 515.978 366.504C513.589 365.001 511.695 362.416 510.259 358.727C507.845 352.529 502.158 348.507 496.428 347.984Z" fill="white"/>
<rect x="459.528" y="312.409" width="55.8716" height="5.2861" rx="2.64305" fill="white"/>
<rect x="459.528" y="324.038" width="32.6441" height="5.2861" rx="2.64305" fill="white"/>
<path d="M446 407.276C446 414.856 453.079 421 461.811 421H547.189C555.921 421 563 414.856 563 407.276V385.867C563 378.287 555.921 372.142 547.189 372.142H479.172C475.512 372.142 471.965 371.04 469.136 369.023L455.803 359.516C452.236 356.32 446 358.512 446 362.962V407.276Z" fill="#371D88"/>
<rect x="546.217" y="409.318" width="17.2623" height="4.17217" rx="2.08608" transform="rotate(180 546.217 409.318)" fill="white"/>
<rect x="546.217" y="400.139" width="32.127" height="4.17217" rx="2.08608" transform="rotate(180 546.217 400.139)" fill="white"/>
<rect x="546.217" y="390.96" width="67.6106" height="4.1721" rx="2.08605" transform="rotate(180 546.217 390.96)" fill="white"/>
<rect x="315" y="331" width="88" height="90" rx="30" fill="#371D88"/>
<path fill-rule="evenodd" clip-rule="evenodd" d="M351.478 387.707C362.331 387.707 370.936 378.739 370.936 367.923C370.936 357.107 362.331 348.139 351.478 348.139C340.626 348.139 332.021 357.107 332.021 367.923C332.021 378.739 340.626 387.707 351.478 387.707ZM351.478 391.385C364.148 391.385 374.419 380.881 374.419 367.923C374.419 354.966 364.148 344.462 351.478 344.462C338.809 344.462 328.538 354.966 328.538 367.923C328.538 380.881 338.809 391.385 351.478 391.385Z" fill="white"/>
<path fill-rule="evenodd" clip-rule="evenodd" d="M365.106 383.532C365.779 382.806 366.898 382.774 367.607 383.461L386.477 401.744C387.185 402.43 387.215 403.575 386.542 404.301C385.87 405.027 384.75 405.059 384.042 404.372L365.172 386.089C364.463 385.403 364.434 384.258 365.106 383.532Z" fill="white"/>
</svg>
