<svg width="32" height="32" viewBox="0 0 32 32" fill="none" xmlns="http://www.w3.org/2000/svg">
<path d="M6.09839 11.6885V23C6.09839 27.4183 9.68011 31 14.0984 31H23C27.4183 31 31 27.4183 31 23V17.825V14.0984C31 9.68011 27.4183 6.09839 23 6.09839H11.4345" stroke="#90A7AE" stroke-width="2" stroke-linecap="round" stroke-linejoin="round"/>
<circle cx="4.65014" cy="5.42505" r="3.875" fill="#DCEDB9"/>
<circle cx="6.09836" cy="6.09836" r="5.09836" stroke="#90A7AE" stroke-width="2"/>
<path d="M6.09839 3.55737V6.60655H8.13117" stroke="#90A7AE" stroke-width="2" stroke-linecap="round" stroke-linejoin="round"/>
<path d="M20.1499 18.831C20.1499 20.4155 18.762 21.6999 17.0499 21.6999C15.3379 21.6999 13.95 20.4155 13.95 18.831C13.95 17.2465 17.0499 13.95 17.0499 13.95C17.0499 13.95 20.1499 17.2465 20.1499 18.831Z" fill="#DCEDB9"/>
<path d="M22.25 17.8846C22.25 19.782 20.5319 21.4749 18.2125 21.4749C15.8932 21.4749 14.175 19.782 14.175 17.8846C14.175 17.5217 14.3773 16.9076 14.8365 16.08C15.2748 15.2903 15.8713 14.4376 16.4861 13.6392C17.0979 12.8446 17.7121 12.1241 18.1746 11.6011C18.1873 11.5867 18.2 11.5724 18.2125 11.5582C18.2251 11.5724 18.2377 11.5867 18.2505 11.6011C18.713 12.1241 19.3272 12.8446 19.939 13.6392C20.5538 14.4376 21.1503 15.2903 21.5886 16.08C22.0478 16.9076 22.25 17.5217 22.25 17.8846Z" stroke="#90A7AE" stroke-width="2"/>
<path d="M14.7249 24.8H22.0873" stroke="#90A7AE" stroke-width="2" stroke-linecap="round" stroke-linejoin="round"/>
</svg>
