<svg width="42" height="42" viewBox="0 0 42 42" fill="none" xmlns="http://www.w3.org/2000/svg">
<path d="M7.8689 15.082V30C7.8689 35.5229 12.346 40 17.8689 40H30C35.5229 40 40 35.5229 40 30V23.0001V17.8689C40 12.346 35.5229 7.8689 30 7.8689H14.7541" stroke="#577883" stroke-width="2.5" stroke-linecap="round" stroke-linejoin="round"/>
<circle cx="6" cy="7" r="5" fill="#DCEDB9"/>
<circle cx="7.86885" cy="7.86885" r="6.61885" stroke="#577883" stroke-width="2.5"/>
<path d="M7.8689 4.59021V8.52464H10.4918" stroke="#577883" stroke-width="2.5" stroke-linecap="round" stroke-linejoin="round"/>
<path d="M26 24.2981C26 26.3426 24.2091 28 22 28C19.7909 28 18 26.3426 18 24.2981C18 22.2536 22 18 22 18C22 18 26 22.2536 26 24.2981Z" fill="#DCEDB9"/>
<path d="M28.75 23.0769C28.75 25.551 26.5114 27.75 23.5 27.75C20.4886 27.75 18.25 25.551 18.25 23.0769C18.25 22.5978 18.5155 21.7977 19.1086 20.7289C19.6754 19.7075 20.4465 18.6053 21.2404 17.5744C22.0306 16.5482 22.8237 15.6178 23.4208 14.9425C23.4476 14.9122 23.474 14.8824 23.5 14.8531C23.526 14.8824 23.5524 14.9122 23.5792 14.9425C24.1763 15.6178 24.9694 16.5482 25.7596 17.5744C26.5535 18.6053 27.3246 19.7075 27.8914 20.7289C28.4845 21.7977 28.75 22.5978 28.75 23.0769Z" stroke="#577883" stroke-width="2.5"/>
<path d="M19 32H28.5" stroke="#577883" stroke-width="2.5" stroke-linecap="round" stroke-linejoin="round"/>
</svg>
