<svg width="32" height="32" viewBox="0 0 32 32" fill="none" xmlns="http://www.w3.org/2000/svg">
<path d="M6.09863 11.6885V23C6.09863 27.4183 9.68035 31 14.0986 31H23.0003C27.4185 31 31.0003 27.4183 31.0003 23V17.825V14.0984C31.0003 9.68008 27.4185 6.09836 23.0003 6.09836H11.4347" stroke="white" stroke-width="2" stroke-linecap="round" stroke-linejoin="round"/>
<circle cx="4.6499" cy="5.42502" r="3.375" fill="#DCEDB9" stroke="white"/>
<circle cx="6.09836" cy="6.09836" r="5.09836" stroke="white" stroke-width="2"/>
<path d="M6.09863 3.55737V6.60655H8.13142" stroke="white" stroke-width="2" stroke-linecap="round" stroke-linejoin="round"/>
<path d="M18.8997 18.831C18.8997 19.6357 18.1643 20.45 17.0497 20.45C15.9351 20.45 15.1997 19.6357 15.1997 18.831C15.1997 18.831 15.1997 18.831 15.1997 18.831C15.1997 18.8296 15.2003 18.8088 15.2092 18.7652C15.2186 18.7195 15.2351 18.658 15.2625 18.5799C15.3182 18.4211 15.407 18.2262 15.531 17.9993C15.7799 17.5437 16.1267 17.0383 16.4958 16.5515C16.6839 16.3034 16.8727 16.0667 17.0497 15.8518C17.2267 16.0667 17.4155 16.3034 17.6036 16.5515C17.9727 17.0383 18.3195 17.5437 18.5684 17.9993C18.6924 18.2262 18.7812 18.4211 18.8369 18.5799C18.8643 18.658 18.8808 18.7195 18.8902 18.7652C18.8991 18.8088 18.8997 18.8296 18.8997 18.831C18.8997 18.831 18.8997 18.831 18.8997 18.831Z" fill="#DCEDB9" stroke="white" stroke-width="2.5"/>
<path d="M22.2503 17.8846C22.2503 19.7821 20.5321 21.475 18.2128 21.475C15.8934 21.475 14.1753 19.7821 14.1753 17.8846C14.1753 17.5217 14.3775 16.9076 14.8368 16.08C15.275 15.2904 15.8716 14.4376 16.4864 13.6392C17.0982 12.8446 17.7123 12.1242 18.1748 11.6011C18.1876 11.5867 18.2003 11.5724 18.2128 11.5583C18.2253 11.5724 18.238 11.5867 18.2508 11.6011C18.7132 12.1242 19.3274 12.8446 19.9392 13.6392C20.554 14.4376 21.1506 15.2904 21.5888 16.08C22.0481 16.9076 22.2503 17.5217 22.2503 17.8846Z" stroke="white" stroke-width="2"/>
<path d="M14.7251 24.8H22.0876" stroke="white" stroke-width="2" stroke-linecap="round" stroke-linejoin="round"/>
</svg>
