<svg width="29" height="29" viewBox="0 0 29 29" fill="none" xmlns="http://www.w3.org/2000/svg">
<path d="M19 27H10C5.58172 27 2 23.4183 2 19V14.5V10C2 5.58172 5.58172 2 9.99999 2H19C23.4183 2 27 5.5815 27 9.99978V14.5V19C27 23.4183 23.4183 27 19 27Z" stroke="#90A7AE" stroke-width="2.5" stroke-linecap="round" stroke-linejoin="round"/>
<path d="M14 11.9091C14 13.5157 11.5 17 11.5 17C11.5 17 9 13.5157 9 11.9091C9 10.3024 10.1193 9 11.5 9C12.8807 9 14 10.3024 14 11.9091Z" fill="#DCEDB9"/>
<path d="M19 13C19 13.5843 18.717 14.4791 18.1658 15.596C17.6317 16.6781 16.9096 17.8448 16.1725 18.9312C15.4378 20.014 14.7012 20.9981 14.1472 21.7126C14.0965 21.778 14.0474 21.8411 14 21.9017C13.9526 21.8411 13.9035 21.778 13.8528 21.7126C13.2988 20.9981 12.5622 20.014 11.8275 18.9312C11.0904 17.8448 10.3683 16.6781 9.83423 15.596C9.28298 14.4791 9 13.5843 9 13C9 10.2386 11.2386 8 14 8C16.7614 8 19 10.2386 19 13Z" stroke="#90A7AE" stroke-width="2"/>
<path d="M16 13C16 14.1046 15.1046 15 14 15C12.8954 15 12 14.1046 12 13C12 11.8954 12.8954 11 14 11C15.1046 11 16 11.8954 16 13Z" stroke="#90A7AE" stroke-width="2"/>
</svg>
