<svg width="31" height="30" viewBox="0 0 31 30" fill="none" xmlns="http://www.w3.org/2000/svg">
<path d="M22.3557 29.9683H8.46143C4.04315 29.9683 0.461426 26.3865 0.461426 21.9683V15.0211V8.07398C0.461426 3.6557 4.04315 0.0739746 8.46143 0.0739746H22.3557C26.774 0.0739746 30.3557 3.65558 30.3557 8.07386V15.0211V21.9683C30.3557 26.3865 26.774 29.9683 22.3557 29.9683Z" fill="#E98458"/>
<path d="M21.544 11.663L10.4208 21.4514C9.95309 21.863 9.23793 21.8076 8.83906 21.329C8.46065 20.8749 8.50573 20.2037 8.94145 19.8042L19.8637 9.7922C20.3599 9.33732 21.1264 9.35397 21.6024 9.82998C22.1157 10.3433 22.0889 11.1834 21.544 11.663Z" stroke="white" stroke-width="2.5"/>
<path d="M19.3634 21.7551L9.57501 10.632C9.1634 10.1643 9.21872 9.44911 9.69737 9.05024C10.1515 8.67184 10.8227 8.71691 11.2221 9.15263L21.2342 20.0749C21.6891 20.5711 21.6724 21.3376 21.1964 21.8136C20.6831 22.3269 19.8429 22.3001 19.3634 21.7551Z" stroke="white" stroke-width="2.5"/>
</svg>
