<svg width="30" height="31" viewBox="0 0 30 31" fill="none" xmlns="http://www.w3.org/2000/svg">
<path d="M21.9675 30.1374H8.07324C3.65496 30.1374 0.0732422 26.5557 0.0732422 22.1374V15.1903V8.2431C0.0732422 3.82483 3.65497 0.243103 8.07324 0.243103H21.9675C26.3858 0.243103 29.9675 3.82471 29.9675 8.24299V15.1903V22.1374C29.9675 26.5557 26.3858 30.1374 21.9675 30.1374Z" fill="#82CF5D"/>
<path d="M21.3108 11.9149L10.3171 22.9086H8.49756V21.089L19.4913 10.0953C19.9937 9.59287 20.8084 9.59287 21.3108 10.0953C21.8133 10.5978 21.8133 11.4124 21.3108 11.9149Z" stroke="white" stroke-width="2.5"/>
<path d="M20.4013 14.5924L16.8139 11.0051L15.6182 12.2009L19.2055 15.7882L20.4013 14.5924Z" fill="#82CF5D"/>
</svg>
