<svg width="29" height="29" viewBox="0 0 29 29" fill="none" xmlns="http://www.w3.org/2000/svg">
<rect x="12.4387" y="21.5536" width="1.55612" height="5.44643" rx="0.778061" fill="#DCEDB9"/>
<rect x="16.3291" y="16.8853" width="2.33418" height="10.1148" rx="1.16709" fill="#DCEDB9"/>
<path d="M17 10.5192C17 11.337 16.3284 12 15.5 12C14.6716 12 14 11.337 14 10.5192C14 9.70142 15.5 8 15.5 8C15.5 8 17 9.70142 17 10.5192Z" fill="#DCEDB9"/>
<path d="M14.2244 20.0817L14.2244 16" stroke="white" stroke-width="2.5" stroke-linecap="round" stroke-linejoin="round"/>
<path d="M9 26.3062L9 22.2245" stroke="white" stroke-width="2.5" stroke-linecap="round" stroke-linejoin="round"/>
<path d="M9 22.2245H13" stroke="white" stroke-width="2.5"/>
<path d="M14.2244 16H19" stroke="white" stroke-width="2.5"/>
<path d="M14.2244 26.2041L14.2244 19.0612" stroke="white" stroke-width="2.5" stroke-linecap="round" stroke-linejoin="round"/>
<path d="M19 26.2041L19 16" stroke="white" stroke-width="2.5" stroke-linecap="round" stroke-linejoin="round"/>
<path d="M19 27H10C5.58172 27 2 23.4183 2 19V14.5V10C2 5.58172 5.58172 2 9.99999 2H19C23.4183 2 27 5.5815 27 9.99978V14.5V19C27 23.4183 23.4183 27 19 27Z" stroke="white" stroke-width="2.5" stroke-linecap="round" stroke-linejoin="round"/>
<path d="M16.5662 9.82484C16.5662 10.9548 15.5856 11.9746 14.2448 11.9746C12.9039 11.9746 11.9233 10.9548 11.9233 9.82484C11.9233 9.6801 12.017 9.3145 12.3353 8.71542C12.6298 8.16093 13.0369 7.55159 13.4652 6.97044C13.7329 6.60726 14.0018 6.26481 14.2448 5.96573C14.4878 6.26481 14.7566 6.60726 15.0243 6.97044C15.4527 7.55159 15.8597 8.16093 16.1543 8.71542C16.4725 9.3145 16.5662 9.6801 16.5662 9.82484Z" stroke="white" stroke-width="2.5"/>
</svg>
