<svg width="31" height="31" viewBox="0 0 31 31" fill="none" xmlns="http://www.w3.org/2000/svg">
<path d="M22.4275 30.3065H8.5332C4.11493 30.3065 0.533203 26.7248 0.533203 22.3065V15.3593V8.4122C0.533203 3.99392 4.11493 0.412201 8.53321 0.412201H22.4275C26.8458 0.412201 30.4275 3.99381 30.4275 8.41208V15.3593V22.3065C30.4275 26.7248 26.8458 30.3065 22.4275 30.3065Z" fill="#E98458"/>
<path d="M21.6162 12.0013L10.4931 21.7897C10.0254 22.2013 9.3102 22.146 8.91132 21.6673C8.53292 21.2133 8.578 20.542 9.01372 20.1426L19.9359 10.1306C20.4322 9.67566 21.1987 9.69232 21.6747 10.1683C22.188 10.6816 22.1612 11.5218 21.6162 12.0013Z" stroke="white" stroke-width="2.5"/>
<path d="M19.4356 22.0935L9.64728 10.9704C9.23567 10.5026 9.29099 9.78746 9.76964 9.38859C10.2237 9.01018 10.895 9.05526 11.2944 9.49098L21.3064 20.4132C21.7613 20.9094 21.7447 21.6759 21.2686 22.1519C20.7553 22.6652 19.9152 22.6385 19.4356 22.0935Z" stroke="white" stroke-width="2.5"/>
</svg>
