<svg width="31" height="31" viewBox="0 0 31 31" fill="none" xmlns="http://www.w3.org/2000/svg">
<path d="M22.3557 30.4609H8.46143C4.04315 30.4609 0.461426 26.8792 0.461426 22.4609V15.5138V8.56665C0.461426 4.14837 4.04315 0.56665 8.46143 0.56665H22.3557C26.774 0.56665 30.3557 4.14826 30.3557 8.56653V15.5138V22.4609C30.3557 26.8792 26.774 30.4609 22.3557 30.4609Z" fill="#E98458"/>
<path d="M21.544 12.1558L10.4208 21.9441C9.95309 22.3558 9.23793 22.3004 8.83906 21.8218C8.46065 21.3677 8.50573 20.6964 8.94145 20.297L19.8637 10.285C20.3599 9.83011 21.1264 9.84677 21.6024 10.3228C22.1157 10.8361 22.0889 11.6762 21.544 12.1558Z" stroke="white" stroke-width="2.5"/>
<path d="M19.3634 22.2479L9.57501 11.1248C9.1634 10.6571 9.21872 9.94191 9.69737 9.54304C10.1515 9.16463 10.8227 9.20971 11.2221 9.64543L21.2342 20.5677C21.6891 21.0639 21.6724 21.8304 21.1964 22.3064C20.6831 22.8197 19.8429 22.7929 19.3634 22.2479Z" stroke="white" stroke-width="2.5"/>
</svg>
