<svg width="30" height="30" viewBox="0 0 30 30" fill="none" xmlns="http://www.w3.org/2000/svg">
<path d="M21.8948 29.9683H8.00049C3.58221 29.9683 0.000488281 26.3865 0.000488281 21.9683V15.0211V8.07398C0.000488281 3.6557 3.58221 0.0739746 8.00049 0.0739746H21.8948C26.3131 0.0739746 29.8948 3.65558 29.8948 8.07386V15.0211V21.9683C29.8948 26.3865 26.3131 29.9683 21.8948 29.9683Z" fill="#82CF5D"/>
<path d="M21.2381 11.7456L10.2444 22.7393H8.4248V20.9198L19.4185 9.92608C19.921 9.42362 20.7356 9.42362 21.2381 9.92608C21.7405 10.4285 21.7405 11.2432 21.2381 11.7456Z" stroke="white" stroke-width="2.5"/>
<path d="M20.3285 14.4233L16.7412 10.8359L15.5454 12.0317L19.1327 15.619L20.3285 14.4233Z" fill="#82CF5D"/>
</svg>
