<svg width="30" height="31" viewBox="0 0 30 31" fill="none" xmlns="http://www.w3.org/2000/svg">
<path d="M21.967 30.3065H8.07275C3.65448 30.3065 0.0727539 26.7248 0.0727539 22.3065V15.3593V8.4122C0.0727539 3.99392 3.65448 0.412201 8.07276 0.412201H21.967C26.3853 0.412201 29.967 3.99381 29.967 8.41208V15.3593V22.3065C29.967 26.7248 26.3853 30.3065 21.967 30.3065Z" fill="#82CF5D"/>
<path d="M21.3103 12.0839L10.3166 23.0776H8.49707V21.2581L19.4908 10.2644C19.9932 9.76191 20.8079 9.76191 21.3103 10.2644C21.8128 10.7668 21.8128 11.5815 21.3103 12.0839Z" stroke="white" stroke-width="2.5"/>
<path d="M20.4008 14.7615L16.8134 11.1741L15.6177 12.3699L19.205 15.9572L20.4008 14.7615Z" fill="#82CF5D"/>
</svg>
