<svg width="31" height="31" viewBox="0 0 31 31" fill="none" xmlns="http://www.w3.org/2000/svg">
<path d="M22.3552 30.3065H8.46094C4.04266 30.3065 0.460938 26.7248 0.460938 22.3065V15.3594V8.41223C0.460938 3.99395 4.04266 0.412231 8.46094 0.412231H22.3552C26.7735 0.412231 30.3552 3.99384 30.3552 8.41211V15.3594V22.3065C30.3552 26.7248 26.7735 30.3065 22.3552 30.3065Z" fill="#E98458"/>
<path d="M21.544 12.0014L10.4208 21.7897C9.95309 22.2013 9.23793 22.146 8.83906 21.6674C8.46065 21.2133 8.50573 20.542 8.94145 20.1426L19.8637 10.1306C20.3599 9.6757 21.1264 9.69235 21.6024 10.1684C22.1157 10.6817 22.0889 11.5218 21.544 12.0014Z" stroke="white" stroke-width="2.5"/>
<path d="M19.3634 22.0935L9.57501 10.9704C9.1634 10.5026 9.21872 9.78749 9.69737 9.38862C10.1515 9.01021 10.8227 9.05529 11.2221 9.49101L21.2342 20.4132C21.6891 20.9095 21.6724 21.676 21.1964 22.152C20.6831 22.6653 19.8429 22.6385 19.3634 22.0935Z" stroke="white" stroke-width="2.5"/>
</svg>
