<svg width="30" height="31" viewBox="0 0 30 31" fill="none" xmlns="http://www.w3.org/2000/svg">
<path d="M21.8948 30.1373H8.00049C3.58221 30.1373 0.000488281 26.5556 0.000488281 22.1373V15.1902V8.24304C0.000488281 3.82476 3.58221 0.243042 8.00049 0.243042H21.8948C26.3131 0.243042 29.8948 3.82465 29.8948 8.24293V15.1902V22.1373C29.8948 26.5556 26.3131 30.1373 21.8948 30.1373Z" fill="#82CF5D"/>
<path d="M21.2381 11.9148L10.2444 22.9085H8.4248V21.089L19.4185 10.0953C19.921 9.59281 20.7356 9.59281 21.2381 10.0953C21.7405 10.5977 21.7405 11.4124 21.2381 11.9148Z" stroke="white" stroke-width="2.5"/>
<path d="M20.3285 14.5923L16.7412 11.005L15.5454 12.2008L19.1327 15.7881L20.3285 14.5923Z" fill="#82CF5D"/>
</svg>
