<svg width="30" height="31" viewBox="0 0 30 31" fill="none" xmlns="http://www.w3.org/2000/svg">
<path d="M21.8943 30.3065H8C3.58172 30.3065 0 26.7248 0 22.3065V15.3594V8.41223C0 3.99395 3.58172 0.412231 8 0.412231H21.8943C26.3126 0.412231 29.8943 3.99384 29.8943 8.41211V15.3594V22.3065C29.8943 26.7248 26.3126 30.3065 21.8943 30.3065Z" fill="#82CF5D"/>
<path d="M21.2376 12.0839L10.2439 23.0776H8.42432V21.2581L19.418 10.2643C19.9205 9.76188 20.7351 9.76188 21.2376 10.2643C21.74 10.7668 21.74 11.5814 21.2376 12.0839Z" stroke="white" stroke-width="2.5"/>
<path d="M20.328 14.7614L16.7407 11.1741L15.5449 12.3698L19.1322 15.9572L20.328 14.7614Z" fill="#82CF5D"/>
</svg>
