<svg width="31" height="31" viewBox="0 0 31 31" fill="none" xmlns="http://www.w3.org/2000/svg">
<path d="M22.3557 30.1373H8.46143C4.04315 30.1373 0.461426 26.5556 0.461426 22.1373V15.1902V8.24304C0.461426 3.82476 4.04315 0.243042 8.46143 0.243042H22.3557C26.774 0.243042 30.3557 3.82465 30.3557 8.24293V15.1902V22.1373C30.3557 26.5556 26.774 30.1373 22.3557 30.1373Z" fill="#E98458"/>
<path d="M21.544 11.8322L10.4208 21.6205C9.95309 22.0322 9.23793 21.9768 8.83906 21.4982C8.46065 21.0441 8.50573 20.3728 8.94145 19.9734L19.8637 9.96139C20.3599 9.50651 21.1264 9.52316 21.6024 9.99917C22.1157 10.5125 22.0889 11.3526 21.544 11.8322Z" stroke="white" stroke-width="2.5"/>
<path d="M19.3634 21.9243L9.57501 10.8012C9.1634 10.3335 9.21872 9.6183 9.69737 9.21943C10.1515 8.84102 10.8227 8.8861 11.2221 9.32182L21.2342 20.244C21.6891 20.7403 21.6724 21.5068 21.1964 21.9828C20.6831 22.4961 19.8429 22.4693 19.3634 21.9243Z" stroke="white" stroke-width="2.5"/>
</svg>
