<svg width="30" height="31" viewBox="0 0 30 31" fill="none" xmlns="http://www.w3.org/2000/svg">
<path d="M21.8948 30.4609H8.00049C3.58221 30.4609 0.000488281 26.8792 0.000488281 22.4609V15.5138V8.56665C0.000488281 4.14837 3.58221 0.56665 8.00049 0.56665H21.8948C26.3131 0.56665 29.8948 4.14826 29.8948 8.56653V15.5138V22.4609C29.8948 26.8792 26.3131 30.4609 21.8948 30.4609Z" fill="#82CF5D"/>
<path d="M21.2381 12.2384L10.2444 23.2321H8.4248V21.4126L19.4185 10.4189C19.921 9.91642 20.7356 9.91642 21.2381 10.4189C21.7405 10.9213 21.7405 11.736 21.2381 12.2384Z" stroke="white" stroke-width="2.5"/>
<path d="M20.3285 14.9159L16.7412 11.3286L15.5454 12.5244L19.1327 16.1117L20.3285 14.9159Z" fill="#82CF5D"/>
</svg>
