<svg width="31" height="31" viewBox="0 0 31 31" fill="none" xmlns="http://www.w3.org/2000/svg">
<path d="M22.4285 30.1374H8.53418C4.1159 30.1374 0.53418 26.5557 0.53418 22.1374V15.1903V8.2431C0.53418 3.82483 4.1159 0.243103 8.53418 0.243103H22.4285C26.8468 0.243103 30.4285 3.82471 30.4285 8.24299V15.1903V22.1374C30.4285 26.5557 26.8468 30.1374 22.4285 30.1374Z" fill="#E98458"/>
<path d="M21.6167 11.8322L10.4936 21.6206C10.0258 22.0322 9.31069 21.9769 8.91181 21.4982C8.53341 21.0442 8.57849 20.3729 9.01421 19.9735L19.9364 9.96145C20.4327 9.50657 21.1991 9.52322 21.6752 9.99923C22.1885 10.5125 22.1617 11.3527 21.6167 11.8322Z" stroke="white" stroke-width="2.5"/>
<path d="M19.4361 21.9244L9.64777 10.8013C9.23616 10.3335 9.29148 9.61836 9.77013 9.21949C10.2242 8.84109 10.8955 8.88617 11.2949 9.32188L21.3069 20.2441C21.7618 20.7403 21.7451 21.5068 21.2691 21.9828C20.7558 22.4961 19.9157 22.4694 19.4361 21.9244Z" stroke="white" stroke-width="2.5"/>
</svg>
