<svg width="16" height="17" viewBox="0 0 16 17" fill="none" xmlns="http://www.w3.org/2000/svg">
<path d="M6.15385 1.21429C5.8141 1.21429 5.52404 1.33287 5.28365 1.57003C5.04327 1.8072 4.92308 2.09338 4.92308 2.42857V10.9286L3.47115 9.01228C3.20833 8.67076 2.86538 8.5 2.44231 8.5C2.10897 8.5 1.82372 8.62016 1.58654 8.86049C1.34936 9.10082 1.23077 9.38542 1.23077 9.71429C1.23077 9.98624 1.3141 10.2297 1.48077 10.4448L5.17308 15.3019C5.41667 15.6244 5.74359 15.7857 6.15385 15.7857H13.0577C13.1987 15.7857 13.3253 15.743 13.4375 15.6576C13.5497 15.5723 13.6218 15.4632 13.6538 15.3304L14.5385 11.8393C14.6923 11.2321 14.7692 10.6187 14.7692 9.99888V7.94029C14.7692 7.68099 14.6795 7.45647 14.5 7.26674C14.3205 7.07701 14.1026 6.98214 13.8462 6.98214C13.5897 6.98214 13.3718 7.07068 13.1923 7.24777C13.0128 7.42485 12.9231 7.63988 12.9231 7.89286H12.6154V7.31417C12.6154 7.0106 12.5128 6.75288 12.3077 6.54102C12.1026 6.32915 11.8462 6.22321 11.5385 6.22321C11.2436 6.22321 10.9904 6.32757 10.7788 6.53627C10.5673 6.74498 10.4615 6.99479 10.4615 7.28571V7.89286H10.1538V7.03906C10.1538 6.69122 10.0353 6.39239 9.79808 6.14258C9.5609 5.89276 9.26923 5.76786 8.92308 5.76786C8.58333 5.76786 8.29327 5.88644 8.05289 6.1236C7.8125 6.36077 7.69231 6.64695 7.69231 6.98214V7.89286H7.38462V2.48549C7.38462 2.13765 7.26603 1.83882 7.02885 1.58901C6.79167 1.33919 6.5 1.21429 6.15385 1.21429ZM6.15385 0C6.83974 0 7.42147 0.245071 7.89904 0.735212C8.3766 1.22535 8.61539 1.80878 8.61539 2.48549V4.57254C8.75641 4.5599 8.85897 4.55357 8.92308 4.55357C9.55769 4.55357 10.1122 4.77176 10.5865 5.20815C10.8878 5.07534 11.2051 5.00893 11.5385 5.00893C12.2628 5.00893 12.8526 5.28404 13.3077 5.83426C13.4808 5.78999 13.6603 5.76786 13.8462 5.76786C14.4487 5.76786 14.9583 5.98131 15.375 6.4082C15.7917 6.8351 16 7.3458 16 7.94029V9.99888C16 10.7325 15.9103 11.444 15.7308 12.1334L14.8462 15.6244C14.7436 16.0292 14.5256 16.3597 14.1923 16.6158C13.859 16.8719 13.4808 17 13.0577 17H6.15385C5.76923 17 5.40224 16.913 5.05288 16.7391C4.70353 16.5652 4.41346 16.3296 4.18269 16.0324L0.490385 11.1752C0.163462 10.7452 0 10.2582 0 9.71429C0 9.05022 0.238782 8.47945 0.716346 8.00195C1.19391 7.52446 1.76923 7.28571 2.44231 7.28571C2.89744 7.28571 3.3141 7.39639 3.69231 7.61775V2.42857C3.69231 1.75818 3.93269 1.18583 4.41346 0.711496C4.89423 0.237165 5.47436 0 6.15385 0ZM7.38462 13.3571V9.71429H7.07692V13.3571H7.38462ZM9.84615 13.3571V9.71429H9.53846V13.3571H9.84615ZM12.3077 13.3571V9.71429H12V13.3571H12.3077Z" fill="black"/>
</svg>
