<svg width="47" height="117" viewBox="0 0 47 117" fill="none" xmlns="http://www.w3.org/2000/svg">
<path fill-rule="evenodd" clip-rule="evenodd" d="M46.4185 0.790867C46.8415 1.19604 46.856 1.86744 46.4508 2.29048C45.807 2.96269 45.119 3.62842 44.3937 4.28888C43.9606 4.68327 43.2898 4.65189 42.8954 4.21878C42.501 3.78568 42.5324 3.11485 42.9655 2.72046C43.6602 2.08782 44.313 1.45582 44.9189 0.823223C45.3241 0.40018 45.9954 0.385694 46.4185 0.790867ZM40.1975 6.44178C40.5543 6.90642 40.4668 7.57226 40.0021 7.92896C38.55 9.04374 37.0164 10.1557 35.4339 11.2699C34.9549 11.6071 34.2933 11.4922 33.9561 11.0132C33.6188 10.5343 33.7337 9.87262 34.2127 9.53539C35.7806 8.43147 37.289 7.33758 38.7104 6.24636C39.175 5.88965 39.8408 5.97714 40.1975 6.44178ZM31.0816 12.993C31.4118 13.4768 31.2871 14.1367 30.8033 14.4669C30.4763 14.6899 30.1487 14.9133 29.8205 15.137C28.6097 15.9623 27.3914 16.7927 26.1739 17.633C25.6918 17.9657 25.0312 17.8446 24.6985 17.3625C24.3658 16.8804 24.4869 16.2199 24.969 15.8872C26.192 15.0431 27.4168 14.2082 28.6283 13.3824C28.9558 13.1591 29.2824 12.9365 29.6077 12.7146C30.0916 12.3844 30.7515 12.5091 31.0816 12.993ZM21.8421 19.3739C22.1862 19.848 22.081 20.5112 21.607 20.8554C20.0905 21.9563 18.6036 23.0749 17.1691 24.2165C16.7108 24.5813 16.0435 24.5054 15.6788 24.0471C15.314 23.5887 15.3899 22.9214 15.8482 22.5567C17.3128 21.3912 18.8254 20.2534 20.3607 19.1388C20.8347 18.7946 21.4979 18.8999 21.8421 19.3739ZM13.0155 26.3044C13.4113 26.7362 13.3821 27.4071 12.9502 27.8029C11.5625 29.0749 10.2648 30.3756 9.0837 31.7112C8.69566 32.15 8.02536 32.1912 7.58656 31.8031C7.14775 31.4151 7.1066 30.7448 7.49465 30.306C8.73306 28.9056 10.0845 27.552 11.5169 26.2392C11.9488 25.8434 12.6197 25.8726 13.0155 26.3044ZM5.45795 34.5768C5.95122 34.8927 6.095 35.5487 5.77908 36.0419C4.78592 37.5927 3.96983 39.1879 3.36259 40.8357C3.16005 41.3853 2.55028 41.6667 2.00064 41.4642C1.451 41.2616 1.16962 40.6519 1.37217 40.1022C2.03912 38.2923 2.92812 36.5602 3.99276 34.8979C4.30868 34.4046 4.96467 34.2608 5.45795 34.5768ZM1.22711 44.8666C1.81072 44.917 2.243 45.4309 2.19265 46.0145C2.04606 47.7134 2.12136 49.4811 2.45473 51.3273C2.55882 51.9037 2.17589 52.4554 1.59944 52.5595C1.02299 52.6636 0.471306 52.2807 0.367216 51.7042C0.00121279 49.6773 -0.0837926 47.7215 0.0792285 45.8322C0.129584 45.2486 0.643509 44.8163 1.22711 44.8666ZM31.2163 50.4239C31.3194 51.0005 30.9355 51.5515 30.3589 51.6546C29.1531 51.8701 28.1157 52.7031 27.5264 54.7233C27.3624 55.2856 26.7736 55.6085 26.2112 55.4445C25.6489 55.2805 25.326 54.6917 25.49 54.1293C26.2467 51.5352 27.8009 49.957 29.9856 49.5665C30.5623 49.4634 31.1133 49.8473 31.2163 50.4239ZM34.6151 51.3511C34.8852 50.8313 35.5255 50.6288 36.0453 50.8988C36.8696 51.3271 37.7106 51.8436 38.5587 52.4368C39.5042 53.0981 40.1756 53.9393 40.57 54.9125C40.7901 55.4553 40.5284 56.0738 39.9856 56.2939C39.4427 56.514 38.8242 56.2523 38.6042 55.7094C38.3715 55.1354 37.9704 54.614 37.3429 54.1751C36.5592 53.627 35.7976 53.1606 35.0674 52.7812C34.5476 52.5112 34.3451 51.8709 34.6151 51.3511ZM2.61143 55.9067C3.15273 55.6828 3.77303 55.9401 3.99691 56.4814C4.33066 57.2883 4.71235 58.1102 5.14466 58.9476C5.55089 59.7344 5.968 60.4744 6.39455 61.1696C6.70087 61.6689 6.54445 62.322 6.04516 62.6283C5.54587 62.9346 4.89278 62.7782 4.58645 62.2789C4.13141 61.5372 3.68881 60.7517 3.25978 59.9207C2.8014 59.0329 2.39432 58.1568 2.03669 57.2922C1.81281 56.7509 2.07013 56.1306 2.61143 55.9067ZM25.9754 58.9518C26.5604 58.9234 27.0578 59.3746 27.0862 59.9597C27.1619 61.518 27.375 63.3121 27.7474 65.3608C27.8522 65.9371 27.4699 66.4893 26.8936 66.594C26.3173 66.6988 25.7651 66.3165 25.6604 65.7402C25.2749 63.6199 25.0486 61.7317 24.9675 60.0626C24.939 59.4776 25.3903 58.9802 25.9754 58.9518ZM39.5998 59.4214C40.1372 59.6545 40.3839 60.2791 40.1508 60.8165C39.4678 62.3911 38.3981 63.9758 37.0552 65.4486C36.6605 65.8814 35.9896 65.9123 35.5568 65.5177C35.1239 65.123 35.093 64.4521 35.4877 64.0193C36.7054 62.6838 37.6322 61.2923 38.2047 59.9724C38.4378 59.435 39.0624 59.1883 39.5998 59.4214ZM7.89523 65.1321C8.32752 64.7368 8.99841 64.7668 9.3937 65.1991C10.6172 66.5371 11.8849 67.5946 13.1718 68.4116C13.6664 68.7255 13.8128 69.3809 13.4988 69.8755C13.1849 70.37 12.5295 70.5164 12.0349 70.2025C10.5793 69.2784 9.16935 68.0972 7.82823 66.6305C7.43294 66.1982 7.46294 65.5274 7.89523 65.1321ZM33.1896 67.5531C33.519 68.0375 33.3934 68.6972 32.909 69.0266C31.7145 69.8388 30.422 70.5621 29.058 71.1563C29.4668 72.7032 29.9431 74.3513 30.4916 76.1045C30.6665 76.6636 30.3551 77.2585 29.7961 77.4335C29.237 77.6084 28.642 77.297 28.4671 76.7379C27.8627 74.806 27.3427 72.9939 26.902 71.2971C26.8106 71.1992 26.7364 71.0822 26.686 70.9492C26.4784 70.4014 26.7542 69.7891 27.302 69.5815C28.8715 68.9869 30.3598 68.1948 31.7162 67.2724C32.2005 66.943 32.8602 67.0687 33.1896 67.5531ZM16.3589 71.1129C16.4984 70.544 17.0728 70.1959 17.6417 70.3355C19.2623 70.733 20.8944 70.8355 22.4992 70.6984C23.0828 70.6485 23.5964 71.0813 23.6462 71.6649C23.6961 72.2486 23.2634 72.7621 22.6797 72.812C20.8626 72.9672 18.9978 72.8523 17.1363 72.3957C16.5674 72.2561 16.2193 71.6818 16.3589 71.1129ZM30.9057 80.7542C31.4581 80.5594 32.0639 80.8493 32.2587 81.4017C32.8463 83.0682 33.4892 84.813 34.1901 86.6387C34.4001 87.1856 34.127 87.7991 33.5801 88.009C33.0333 88.219 32.4198 87.9459 32.2098 87.399C31.5024 85.5564 30.8527 83.7932 30.2581 82.1072C30.0633 81.5547 30.3532 80.949 30.9057 80.7542ZM34.8637 91.2392C35.4057 91.0172 36.0251 91.2767 36.2471 91.8187C36.9266 93.4779 37.6487 95.1954 38.4151 96.9729C38.647 97.5108 38.399 98.1348 37.8611 98.3668C37.3232 98.5987 36.6991 98.3506 36.4672 97.8127C35.6959 96.024 34.9687 94.2944 34.2841 92.6227C34.0621 92.0806 34.3216 91.4612 34.8637 91.2392ZM39.2698 101.562C39.8041 101.322 40.4319 101.56 40.6722 102.095C41.4141 103.744 42.1909 105.44 43.0035 107.183C43.2509 107.714 43.0211 108.345 42.4902 108.593C41.9593 108.84 41.3283 108.611 41.0808 108.08C40.2643 106.328 39.4836 104.623 38.7376 102.965C38.4973 102.431 38.7356 101.803 39.2698 101.562ZM43.9834 111.746C44.5114 111.492 45.1451 111.715 45.3988 112.243C45.8042 113.086 46.2173 113.94 46.6383 114.804C46.8949 115.331 46.6761 115.966 46.1495 116.222C45.6229 116.479 44.988 116.26 44.7314 115.733C44.3087 114.866 43.8939 114.009 43.4868 113.162C43.2331 112.634 43.4555 112 43.9834 111.746Z" fill="#8AA357"/>
</svg>
